# xmcd CD database file
#
# Track frame offsets:
#	150
#	19942
#	38252
#	49412
#	65527
#	78085
#	98057
#	118440
#	133300
#	145812
#	156980
#	177965
#	195217
#	215277
#	244117
#
# Disc length: 3275 seconds
#
# Revision: 2
# Processed by: cddbd v1.4b41PL1 Copyright (c) Steve Scherf et al.
# Submitted via: Feurio! 1.53ß - http://www.feurio.com
#
DISCID=ce0cc90f
DTITLE=Big Bang Gang - Soulclub
DYEAR=1900
DGENRE=
TTITLE0=You can leave your hat on
TTITLE1=Signed stealed delivered
TTITLE2=Hard to handle
TTITLE3=Think
TTITLE4=Soulman
TTITLE5=Chain of fools
TTITLE6=Diggin on James Brown
TTITLE7=Gangster of love
TTITLE8=Soulshake
TTITLE9=In the midnight hour
TTITLE10=Take me to the river (live)
TTITLE11=She cought the Katy (live)
TTITLE12=Try a little tenderness (live)
TTITLE13=Unchain my heart (live)
TTITLE14=Brumm, brumm
EXTD=
EXTT0=
EXTT1=
EXTT2=
EXTT3=
EXTT4=
EXTT5=
EXTT6=
EXTT7=
EXTT8=
EXTT9=
EXTT10=
EXTT11=
EXTT12=
EXTT13=
EXTT14=
PLAYORDER=
